<mxfile host="app.diagrams.net" modified="2022-03-28T06:52:36.700Z" agent="5.0 (Macintosh; Intel Mac OS X 10_15_7) AppleWebKit/537.36 (KHTML, like Gecko) Chrome/99.0.4844.74 Safari/537.36" etag="9hFxvGxZNDVvwMIgJhhG" version="17.2.4" type="github">
  <diagram id="R2lEEEUBdFMjLlhIrx00" name="Page-1">
    <mxGraphModel dx="1018" dy="691" grid="1" gridSize="10" guides="1" tooltips="1" connect="1" arrows="1" fold="1" page="1" pageScale="1" pageWidth="850" pageHeight="1100" math="0" shadow="0" extFonts="Permanent Marker^https://fonts.googleapis.com/css?family=Permanent+Marker">
      <root>
        <mxCell id="0" />
        <mxCell id="1" parent="0" />
        <mxCell id="4hTh8UlidPiEM1H8B5LH-1" value="Tenant" style="whiteSpace=wrap;html=1;align=center;" vertex="1" parent="1">
          <mxGeometry x="535" y="570" width="100" height="40" as="geometry" />
        </mxCell>
        <mxCell id="4hTh8UlidPiEM1H8B5LH-2" value="Buildings" style="whiteSpace=wrap;html=1;align=center;" vertex="1" parent="1">
          <mxGeometry x="75" y="310" width="100" height="40" as="geometry" />
        </mxCell>
        <mxCell id="4hTh8UlidPiEM1H8B5LH-3" value="Apartments" style="shape=ext;margin=3;double=1;whiteSpace=wrap;html=1;align=center;strokeColor=#000000;" vertex="1" parent="1">
          <mxGeometry x="515" y="310" width="100" height="40" as="geometry" />
        </mxCell>
        <mxCell id="4hTh8UlidPiEM1H8B5LH-4" value="Rent" style="shape=rhombus;perimeter=rhombusPerimeter;whiteSpace=wrap;html=1;align=center;strokeColor=#000000;strokeWidth=2;fillColor=#FFFFFF;" vertex="1" parent="1">
          <mxGeometry x="505" y="390" width="120" height="60" as="geometry" />
        </mxCell>
        <mxCell id="4hTh8UlidPiEM1H8B5LH-5" value="Include" style="shape=rhombus;double=1;perimeter=rhombusPerimeter;whiteSpace=wrap;html=1;align=center;strokeColor=#000000;strokeWidth=2;fillColor=#FFFFFF;" vertex="1" parent="1">
          <mxGeometry x="315" y="310" width="120" height="60" as="geometry" />
        </mxCell>
        <mxCell id="4hTh8UlidPiEM1H8B5LH-6" value="" style="edgeStyle=entityRelationEdgeStyle;fontSize=12;html=1;endArrow=ERone;endFill=1;rounded=0;entryX=1;entryY=0.5;entryDx=0;entryDy=0;strokeWidth=2;" edge="1" parent="1" source="4hTh8UlidPiEM1H8B5LH-5" target="4hTh8UlidPiEM1H8B5LH-2">
          <mxGeometry width="100" height="100" relative="1" as="geometry">
            <mxPoint x="325" y="410" as="sourcePoint" />
            <mxPoint x="425" y="310" as="targetPoint" />
          </mxGeometry>
        </mxCell>
        <mxCell id="4hTh8UlidPiEM1H8B5LH-7" value="" style="edgeStyle=entityRelationEdgeStyle;fontSize=12;html=1;endArrow=ERoneToMany;rounded=0;exitX=1;exitY=0.5;exitDx=0;exitDy=0;strokeWidth=2;" edge="1" parent="1" source="4hTh8UlidPiEM1H8B5LH-5" target="4hTh8UlidPiEM1H8B5LH-3">
          <mxGeometry width="100" height="100" relative="1" as="geometry">
            <mxPoint x="325" y="410" as="sourcePoint" />
            <mxPoint x="425" y="310" as="targetPoint" />
          </mxGeometry>
        </mxCell>
        <mxCell id="4hTh8UlidPiEM1H8B5LH-8" value="" style="edgeStyle=entityRelationEdgeStyle;fontSize=12;html=1;endArrow=ERone;endFill=1;rounded=0;exitX=0.5;exitY=0;exitDx=0;exitDy=0;strokeWidth=2;" edge="1" parent="1" source="4hTh8UlidPiEM1H8B5LH-4" target="4hTh8UlidPiEM1H8B5LH-3">
          <mxGeometry width="100" height="100" relative="1" as="geometry">
            <mxPoint x="325" y="410" as="sourcePoint" />
            <mxPoint x="425" y="310" as="targetPoint" />
          </mxGeometry>
        </mxCell>
        <mxCell id="4hTh8UlidPiEM1H8B5LH-9" value="" style="edgeStyle=entityRelationEdgeStyle;fontSize=12;html=1;endArrow=ERoneToMany;rounded=0;exitX=0.5;exitY=1;exitDx=0;exitDy=0;strokeWidth=2;" edge="1" parent="1" source="4hTh8UlidPiEM1H8B5LH-4" target="4hTh8UlidPiEM1H8B5LH-1">
          <mxGeometry width="100" height="100" relative="1" as="geometry">
            <mxPoint x="325" y="410" as="sourcePoint" />
            <mxPoint x="425" y="310" as="targetPoint" />
          </mxGeometry>
        </mxCell>
        <mxCell id="4hTh8UlidPiEM1H8B5LH-10" value="Number" style="ellipse;whiteSpace=wrap;html=1;align=center;fontStyle=4;strokeColor=#000000;strokeWidth=2;fillColor=#FFFFFF;" vertex="1" parent="1">
          <mxGeometry x="35" y="240" width="100" height="40" as="geometry" />
        </mxCell>
        <mxCell id="4hTh8UlidPiEM1H8B5LH-11" value="&lt;span style=&quot;border-bottom: 1px dotted&quot;&gt;Number&lt;/span&gt;" style="ellipse;whiteSpace=wrap;html=1;align=center;strokeColor=#000000;strokeWidth=2;fillColor=#FFFFFF;" vertex="1" parent="1">
          <mxGeometry x="505" y="230" width="100" height="40" as="geometry" />
        </mxCell>
        <mxCell id="4hTh8UlidPiEM1H8B5LH-12" value="Monthly rent" style="ellipse;whiteSpace=wrap;html=1;align=center;strokeColor=#000000;strokeWidth=2;fillColor=#FFFFFF;" vertex="1" parent="1">
          <mxGeometry x="370" y="390" width="100" height="40" as="geometry" />
        </mxCell>
        <mxCell id="4hTh8UlidPiEM1H8B5LH-13" value="End-of-lease date" style="ellipse;whiteSpace=wrap;html=1;align=center;strokeColor=#000000;strokeWidth=2;fillColor=#FFFFFF;" vertex="1" parent="1">
          <mxGeometry x="405" y="460" width="120" height="40" as="geometry" />
        </mxCell>
        <mxCell id="4hTh8UlidPiEM1H8B5LH-14" value="Last name" style="ellipse;whiteSpace=wrap;html=1;align=center;strokeColor=#000000;strokeWidth=2;fillColor=#FFFFFF;" vertex="1" parent="1">
          <mxGeometry x="605" y="690" width="100" height="40" as="geometry" />
        </mxCell>
        <mxCell id="4hTh8UlidPiEM1H8B5LH-15" value="First name" style="ellipse;whiteSpace=wrap;html=1;align=center;strokeColor=#000000;strokeWidth=2;fillColor=#FFFFFF;" vertex="1" parent="1">
          <mxGeometry x="485" y="680" width="100" height="40" as="geometry" />
        </mxCell>
        <mxCell id="4hTh8UlidPiEM1H8B5LH-16" value="" style="endArrow=none;html=1;rounded=0;strokeWidth=2;" edge="1" parent="1" source="4hTh8UlidPiEM1H8B5LH-13" target="4hTh8UlidPiEM1H8B5LH-4">
          <mxGeometry relative="1" as="geometry">
            <mxPoint x="285" y="350" as="sourcePoint" />
            <mxPoint x="445" y="350" as="targetPoint" />
          </mxGeometry>
        </mxCell>
        <mxCell id="4hTh8UlidPiEM1H8B5LH-17" value="" style="endArrow=none;html=1;rounded=0;strokeWidth=2;" edge="1" parent="1" source="4hTh8UlidPiEM1H8B5LH-12" target="4hTh8UlidPiEM1H8B5LH-4">
          <mxGeometry relative="1" as="geometry">
            <mxPoint x="285" y="350" as="sourcePoint" />
            <mxPoint x="445" y="350" as="targetPoint" />
          </mxGeometry>
        </mxCell>
        <mxCell id="4hTh8UlidPiEM1H8B5LH-18" value="Employer&#39;s Name" style="ellipse;whiteSpace=wrap;html=1;align=center;strokeColor=#000000;strokeWidth=2;fillColor=#FFFFFF;" vertex="1" parent="1">
          <mxGeometry x="315" y="610" width="120" height="40" as="geometry" />
        </mxCell>
        <mxCell id="4hTh8UlidPiEM1H8B5LH-19" value="Home phone num" style="ellipse;whiteSpace=wrap;html=1;align=center;strokeColor=#000000;strokeWidth=2;fillColor=#FFFFFF;" vertex="1" parent="1">
          <mxGeometry x="355" y="730" width="130" height="40" as="geometry" />
        </mxCell>
        <mxCell id="4hTh8UlidPiEM1H8B5LH-20" value="Work phone num" style="ellipse;whiteSpace=wrap;html=1;align=center;strokeColor=#000000;strokeWidth=2;fillColor=#FFFFFF;" vertex="1" parent="1">
          <mxGeometry x="695" y="640" width="120" height="40" as="geometry" />
        </mxCell>
        <mxCell id="4hTh8UlidPiEM1H8B5LH-21" value="" style="endArrow=none;html=1;rounded=0;strokeWidth=2;" edge="1" parent="1" source="4hTh8UlidPiEM1H8B5LH-15" target="4hTh8UlidPiEM1H8B5LH-1">
          <mxGeometry relative="1" as="geometry">
            <mxPoint x="285" y="530" as="sourcePoint" />
            <mxPoint x="445" y="530" as="targetPoint" />
          </mxGeometry>
        </mxCell>
        <mxCell id="4hTh8UlidPiEM1H8B5LH-22" value="" style="endArrow=none;html=1;rounded=0;strokeWidth=2;" edge="1" parent="1" source="4hTh8UlidPiEM1H8B5LH-18" target="4hTh8UlidPiEM1H8B5LH-1">
          <mxGeometry relative="1" as="geometry">
            <mxPoint x="285" y="530" as="sourcePoint" />
            <mxPoint x="445" y="530" as="targetPoint" />
          </mxGeometry>
        </mxCell>
        <mxCell id="4hTh8UlidPiEM1H8B5LH-23" value="" style="endArrow=none;html=1;rounded=0;strokeWidth=2;" edge="1" parent="1" source="4hTh8UlidPiEM1H8B5LH-19" target="4hTh8UlidPiEM1H8B5LH-1">
          <mxGeometry relative="1" as="geometry">
            <mxPoint x="285" y="530" as="sourcePoint" />
            <mxPoint x="445" y="530" as="targetPoint" />
          </mxGeometry>
        </mxCell>
        <mxCell id="4hTh8UlidPiEM1H8B5LH-24" value="" style="endArrow=none;html=1;rounded=0;strokeWidth=2;" edge="1" parent="1" source="4hTh8UlidPiEM1H8B5LH-14" target="4hTh8UlidPiEM1H8B5LH-1">
          <mxGeometry relative="1" as="geometry">
            <mxPoint x="285" y="530" as="sourcePoint" />
            <mxPoint x="445" y="530" as="targetPoint" />
          </mxGeometry>
        </mxCell>
        <mxCell id="4hTh8UlidPiEM1H8B5LH-25" value="" style="endArrow=none;html=1;rounded=0;strokeWidth=2;" edge="1" parent="1" source="4hTh8UlidPiEM1H8B5LH-20" target="4hTh8UlidPiEM1H8B5LH-1">
          <mxGeometry relative="1" as="geometry">
            <mxPoint x="285" y="530" as="sourcePoint" />
            <mxPoint x="445" y="530" as="targetPoint" />
          </mxGeometry>
        </mxCell>
        <mxCell id="4hTh8UlidPiEM1H8B5LH-26" value="" style="endArrow=none;html=1;rounded=0;strokeWidth=2;" edge="1" parent="1" source="4hTh8UlidPiEM1H8B5LH-10" target="4hTh8UlidPiEM1H8B5LH-2">
          <mxGeometry relative="1" as="geometry">
            <mxPoint x="285" y="350" as="sourcePoint" />
            <mxPoint x="445" y="350" as="targetPoint" />
          </mxGeometry>
        </mxCell>
        <mxCell id="4hTh8UlidPiEM1H8B5LH-28" value="" style="endArrow=none;html=1;rounded=0;strokeWidth=2;" edge="1" parent="1" source="4hTh8UlidPiEM1H8B5LH-3" target="4hTh8UlidPiEM1H8B5LH-11">
          <mxGeometry relative="1" as="geometry">
            <mxPoint x="285" y="490" as="sourcePoint" />
            <mxPoint x="445" y="490" as="targetPoint" />
          </mxGeometry>
        </mxCell>
      </root>
    </mxGraphModel>
  </diagram>
</mxfile>
